# xmcd
#
# Track frame offsets:
#	150
#	2503
#	16702
#	44729
#	71727
#	106033
#	108080
#	139885
#	165541
#	167708
#	187053
#	214927
#	216289
#	236464
#
# Disc length: 3216 seconds
# Revision: 0
# Processed by: cddbd v1.5.2PL0 Copyright (c) Steve Scherf et al.
# Submitted via: dBpowerAMP V12.0
#
DISCID=bd0c8e0e
DTITLE=Darol Anger and Mike Marshall - Woodshop
DYEAR=2007
DGENRE=Country
TTITLE0=Intro
TTITLE1=Peter Pan
TTITLE2=Slip and Slide
TTITLE3=Who Had Whom
TTITLE4=Borealis
TTITLE5=Interlude #1
TTITLE6=The Unbearable Gift
TTITLE7=Bach, Up
TTITLE8=Interlude #2
TTITLE9=Replaceitall
TTITLE10=Hearts Wait
TTITLE11=Interlude #3
TTITLE12=The Creep
TTITLE13=Outro
EXTD=
EXTT0=
EXTT1=
EXTT2=
EXTT3=
EXTT4=
EXTT5=
EXTT6=
EXTT7=
EXTT8=
EXTT9=
EXTT10=
EXTT11=
EXTT12=
EXTT13=
PLAYORDER=
